<svg version="1.0" xmlns="http://www.w3.org/2000/svg"
 width="512.000000pt" height="512.000000pt" viewBox="0 0 512.000000 512.000000"
 preserveAspectRatio="xMidYMid meet">

<g transform="translate(0.000000,512.000000) scale(0.100000,-0.100000)"
stroke="none">
<path d="M2415 5101 c-291 -72 -550 -342 -743 -775 -25 -56 -46 -103 -48 -105
-2 -2 -54 10 -116 27 -129 35 -282 66 -413 84 -120 16 -393 15 -475 -1 -295
-58 -470 -210 -517 -450 -14 -71 -15 -97 -5 -177 38 -300 242 -659 591 -1038
50 -55 91 -102 91 -106 0 -4 -41 -51 -91 -106 -349 -379 -553 -738 -591 -1038
-22 -171 29 -330 139 -441 142 -141 321 -199 608 -199 220 0 415 29 663 96 62
17 114 29 116 27 2 -2 23 -49 48 -105 101 -226 243 -441 372 -562 485 -453
1053 -226 1404 562 25 56 46 103 48 105 2 2 56 -11 121 -28 262 -69 437 -94
658 -95 169 0 243 10 361 49 279 93 427 328 384 611 -44 293 -251 651 -589
1018 -50 55 -91 102 -91 106 0 4 41 51 91 106 338 367 545 725 589 1018 43
283 -105 518 -384 611 -118 39 -192 49 -361 49 -220 0 -415 -29 -663 -96 -62
-17 -114 -29 -116 -27 -2 2 -23 49 -48 105 -259 581 -645 871 -1033 775z m315
-367 c158 -78 330 -296 445 -564 19 -45 35 -86 35 -90 0 -5 -17 -14 -37 -21
-71 -23 -343 -139 -478 -203 l-135 -65 -135 65 c-135 64 -407 180 -477 203
-21 7 -38 16 -38 21 0 4 16 45 35 90 135 315 346 553 531 600 74 18 171 4 254
-36z m-1615 -715 c129 -15 433 -84 450 -101 3 -2 -6 -45 -20 -94 -51 -186
-103 -458 -125 -659 l-11 -100 -42 -37 c-23 -21 -107 -93 -187 -162 l-145
-124 -34 32 c-18 17 -72 76 -120 131 -330 377 -488 717 -427 919 20 67 55 107
123 144 120 64 293 80 538 51z m3298 -5 c91 -20 179 -66 213 -111 115 -152 38
-437 -212 -779 -85 -117 -231 -290 -295 -351 l-34 -31 -111 96 c-61 54 -145
124 -186 157 l-75 60 -17 137 c-21 182 -59 382 -103 553 -19 77 -36 149 -37
159 -1 21 41 35 234 77 228 50 486 64 623 33z m-2441 -238 c73 -29 173 -72
222 -95 l90 -41 -125 -73 c-141 -83 -285 -174 -383 -242 -37 -26 -69 -45 -72
-42 -17 17 105 547 126 547 4 0 68 -24 142 -54z m1347 -13 c40 -138 108 -469
98 -479 -2 -3 -62 34 -133 81 -71 48 -198 127 -281 177 -84 50 -153 94 -153
98 0 12 403 186 437 189 7 1 21 -29 32 -66z m-609 -344 c236 -133 460 -277
661 -426 l86 -63 7 -76 c8 -96 6 -528 -3 -608 l-6 -59 -130 -94 c-71 -51 -206
-142 -300 -202 -164 -104 -450 -271 -465 -271 -15 0 -301 167 -465 271 -93 60
-228 151 -300 202 l-130 94 -8 69 c-5 38 -7 203 -5 367 l3 299 30 24 c70 57
263 190 406 281 172 109 448 271 465 272 6 1 76 -35 154 -80z m-1322 -859 c0
-77 -3 -140 -6 -140 -9 0 -157 132 -157 140 0 8 148 140 157 140 3 0 6 -63 6
-140z m2432 73 c41 -37 75 -69 75 -73 0 -8 -147 -140 -156 -140 -3 0 -6 63 -6
140 0 77 3 140 6 140 3 0 40 -30 81 -67z m-2552 -454 c78 -66 142 -125 142
-132 0 -26 29 -245 45 -337 23 -136 62 -317 91 -416 14 -48 23 -89 20 -91 -16
-17 -266 -74 -428 -98 -132 -20 -339 -19 -431 1 -89 20 -181 67 -214 110 -31
42 -53 113 -53 175 0 224 214 595 533 926 l60 62 46 -40 c25 -22 110 -94 189
-160z m2971 36 c245 -284 378 -505 426 -713 65 -278 -85 -413 -457 -412 -138
1 -256 14 -418 49 -104 22 -228 56 -236 64 -3 2 6 43 20 91 49 168 101 443
127 666 l12 105 75 60 c41 33 125 103 186 157 l111 96 34 -31 c18 -18 72 -77
120 -132z m-2402 -461 c70 -47 197 -126 281 -176 83 -50 152 -94 152 -98 0
-12 -413 -190 -442 -190 -14 0 -65 202 -107 423 -22 113 -24 127 -17 127 3 0
62 -39 133 -86z m1578 49 c-27 -163 -98 -476 -114 -502 -7 -11 -27 -7 -107 24
-197 76 -355 151 -342 162 7 5 78 49 158 96 80 47 201 124 270 170 69 47 129
86 133 86 4 1 5 -16 2 -36z m-722 -538 c136 -65 409 -181 480 -204 20 -7 37
-16 37 -21 0 -4 -16 -45 -35 -90 -116 -271 -287 -486 -449 -566 -74 -36 -86
-39 -166 -39 -80 0 -92 3 -166 39 -136 67 -270 219 -386 436 -49 92 -104 218
-97 224 2 2 69 29 148 60 148 59 358 153 446 199 28 14 50 26 51 27 1 0 62
-29 137 -65z"/>
<path d="M2421 3074 c-130 -35 -265 -142 -328 -261 -112 -209 -75 -460 93
-627 210 -211 540 -210 749 1 105 105 155 227 155 373 0 146 -50 268 -155 373
-69 70 -152 119 -240 142 -73 19 -202 18 -274 -1z"/>
</g>
</svg>
