<svg version="1.0" xmlns="http://www.w3.org/2000/svg"
 width="880.000000pt" height="858.000000pt" viewBox="0 0 880.000000 858.000000"
 preserveAspectRatio="xMidYMid meet">

<g transform="translate(0.000000,858.000000) scale(0.100000,-0.100000)"
stroke="none">
<path d="M4235 8154 c-105 -21 -141 -30 -210 -51 -92 -29 -211 -86 -299 -145
-40 -27 -603 -582 -1644 -1622 -1535 -1533 -1584 -1583 -1619 -1654 -82 -171
-47 -378 89 -513 133 -134 333 -170 510 -93 60 26 144 108 1623 1585 858 856
1576 1565 1595 1575 27 14 57 19 126 19 83 0 94 -2 134 -29 24 -16 736 -720
1581 -1565 1444 -1443 1542 -1538 1611 -1574 337 -175 726 123 647 495 -28
131 -15 116 -696 798 l-633 635 0 705 c0 446 -4 729 -11 770 -28 174 -161 320
-334 365 -242 62 -499 -93 -554 -335 -6 -25 -11 -165 -11 -312 0 -148 -3 -268
-7 -268 -4 0 -228 220 -498 488 -356 355 -510 502 -562 536 -140 91 -327 164
-483 186 -63 9 -314 12 -355 4z"/>
<path d="M4313 6361 c-31 -15 -400 -377 -1402 -1378 -1334 -1332 -1360 -1359
-1375 -1412 -14 -48 -16 -179 -16 -1045 0 -1158 -1 -1145 90 -1327 90 -182
242 -321 434 -398 146 -58 189 -61 939 -61 l677 0 0 1020 0 1020 745 0 745 0
0 -1020 0 -1021 718 3 c707 4 718 4 797 26 317 89 544 331 606 647 11 57 14
268 14 1105 l0 1035 -22 40 c-33 60 -2728 2750 -2775 2770 -50 20 -124 19
-175 -4z"/>
</g>
</svg>
