<svg version="1.0" xmlns="http://www.w3.org/2000/svg"
 width="512.000000pt" height="512.000000pt" viewBox="0 0 512.000000 512.000000"
 preserveAspectRatio="xMidYMid meet">

<g transform="translate(0.000000,512.000000) scale(0.100000,-0.100000)"
fill="#000000" stroke="none">
<path d="M2930 5000 c-33 -66 -60 -122 -60 -125 0 -3 85 -48 189 -100 l190
-95 60 114 c34 62 61 119 61 125 0 6 -85 54 -190 106 l-190 95 -60 -120z"/>
<path d="M2251 3874 c-237 -471 -431 -859 -431 -863 0 -7 791 -404 795 -399
10 11 867 1720 864 1722 -6 6 -788 396 -793 396 -3 0 -198 -385 -435 -856z"/>
<path d="M3402 3707 c-14 -17 -182 -355 -182 -366 0 -5 31 -32 69 -60 148
-110 314 -314 397 -488 136 -286 164 -625 78 -934 -62 -226 -178 -422 -349
-591 -451 -447 -1151 -515 -1680 -163 -45 30 -105 75 -133 100 l-50 45 -276 0
c-152 0 -276 -3 -276 -6 0 -20 153 -204 236 -284 121 -117 198 -176 332 -257
l104 -63 -193 -2 -194 -3 -3 -317 -2 -318 1185 0 1185 0 0 320 0 320 -182 2
-183 3 45 24 c122 64 260 171 385 296 156 155 241 272 335 459 79 156 128 297
162 466 20 99 23 145 23 330 0 184 -3 231 -23 328 -44 217 -137 453 -247 624
-110 171 -277 350 -439 470 -101 75 -111 81 -124 65z"/>
<path d="M1674 2729 c-25 -50 -44 -92 -42 -94 2 -1 71 -37 154 -78 l150 -75
47 94 47 94 -150 75 c-82 41 -152 75 -155 75 -3 0 -25 -41 -51 -91z"/>
<path d="M2180 2510 l-30 -60 150 -75 c82 -41 153 -75 158 -75 7 0 62 102 62
115 0 5 -295 155 -305 155 -2 0 -18 -27 -35 -60z"/>
<path d="M880 1660 l0 -180 700 0 700 0 0 180 0 180 -700 0 -700 0 0 -180z"/>
</g>
</svg>
